<?xml version="1.0" encoding="UTF-8"?><svg id="logosandtypes_com" xmlns="http://www.w3.org/2000/svg" viewBox="0 0 150 150"><defs><style>.cls-1{fill:#0163ac;}.cls-2{fill:none;}.cls-3{fill:#ae0d41;}</style></defs><path class="cls-2" d="M0,0H150V150H0V0Z"/><path class="cls-3" d="M108.82,96.49c7.2-28.31-6.66-27.99-29.64-30.75-6.17-.9-12.54-1.15-18.43-2.97-13.59-2.74-22.87-20.66-12.61-31.99,7.37-7.8,15-15.35,22.57-22.96,2.51-2.53,6.46-2.32,9,.2,7.61,7.55,42.33,42.09,52.08,51.79,7.15,5.7,6.96,10.84-.21,16.3-7.31,7.05-14.74,14-22.22,20.88l-.55-.49h0Z"/><path class="cls-1" d="M41.63,51.69c-2.74,12.59-4.51,25.61,10.52,29.41,14.8,4.56,31.67-.35,44.98,8.96,9.72,6.06,13.28,19.91,4.83,28.51-7.23,7.98-14.97,15.49-22.66,23.03-1.59,1.55-6.21,1.75-7.82,.2-18.01-17.72-35.57-35.92-53.69-53.54-9.11-7.52-2.42-11.53,3.79-17.57,6.5-6.2,13.05-12.36,20.06-18.99h0Z"/></svg>